<svg width="16" height="21" viewBox="0 0 16 21" fill="none" xmlns="http://www.w3.org/2000/svg">
<path d="M2 21C1.45 21 0.979333 20.8043 0.588 20.413C0.196666 20.0217 0.000666667 19.5507 0 19V9C0 8.45 0.196 7.97933 0.588 7.588C0.98 7.19667 1.45067 7.00067 2 7H3V5C3 3.61667 3.48767 2.43767 4.463 1.463C5.43833 0.488334 6.61733 0.000667349 8 6.82594e-07C9.38267 -0.000665984 10.562 0.487001 11.538 1.463C12.514 2.439 13.0013 3.618 13 5V7H14C14.55 7 15.021 7.196 15.413 7.588C15.805 7.98 16.0007 8.45067 16 9V19C16 19.55 15.8043 20.021 15.413 20.413C15.0217 20.805 14.5507 21.0007 14 21H2ZM9.413 15.413C9.80433 15.021 10 14.55 10 14C10 13.45 9.80433 12.9793 9.413 12.588C9.02167 12.1967 8.55067 12.0007 8 12C7.44933 11.9993 6.97867 12.1953 6.588 12.588C6.19733 12.9807 6.00133 13.4513 6 14C5.99867 14.5487 6.19467 15.0197 6.588 15.413C6.98133 15.8063 7.452 16.002 8 16C8.548 15.998 9.019 15.8023 9.413 15.413ZM5 7H11V5C11 4.16667 10.7083 3.45833 10.125 2.875C9.54167 2.29167 8.83333 2 8 2C7.16667 2 6.45833 2.29167 5.875 2.875C5.29167 3.45833 5 4.16667 5 5V7Z" fill="white"/>
</svg>
