<svg width="18" height="18" viewBox="0 0 18 18" fill="none" xmlns="http://www.w3.org/2000/svg">
<path fill-rule="evenodd" clip-rule="evenodd" d="M9.19338 17.9486C7.42691 17.9486 6.606 17.6896 5.17907 16.6536C4.27649 17.8191 1.41833 18.7299 1.29369 17.1716C1.29369 16.0018 1.03581 15.0133 0.74355 13.9342C0.395414 12.6046 0 11.124 0 8.97863C0 3.85477 4.18623 0 9.14611 0C14.1103 0 17.9999 4.0447 17.9999 9.02612C18.0166 13.9305 14.0765 17.9225 9.19338 17.9486ZM9.26645 4.42888C6.85098 4.3037 4.96847 5.98288 4.55156 8.61604C4.20772 10.7959 4.81804 13.4507 5.33809 13.5888C5.58738 13.6493 6.21488 13.1399 6.606 12.7471C7.25273 13.1958 8.00584 13.4653 8.78937 13.5284C11.2922 13.6493 13.4308 11.7356 13.5988 9.22468C13.6966 6.70844 11.7696 4.5772 9.26645 4.4332L9.26645 4.42888Z" fill="#2B2E34"/>
</svg>
