<svg width="20" height="16" viewBox="0 0 20 16" fill="none" xmlns="http://www.w3.org/2000/svg">
<path d="M1.3747 6.88797C6.74442 4.63021 10.3242 3.14161 12.1141 2.42245C17.2306 0.368853 18.2925 0.0121885 18.986 0.000105283C19.1385 -0.00225581 19.4781 0.0341325 19.6997 0.207048C19.8838 0.35288 19.9356 0.550101 19.9615 0.688573C19.9845 0.826905 20.0162 1.14218 19.9903 1.38829C19.714 4.19938 18.5141 11.021 17.904 14.1696C17.6479 15.5018 17.1385 15.9485 16.6465 15.9921C15.576 16.0871 14.7645 15.3099 13.7285 14.6546C12.1084 13.6288 11.1933 12.9904 9.6192 11.9896C7.80052 10.8329 8.98036 10.1971 10.0163 9.15823C10.2868 8.88629 15.0004 4.74882 15.0896 4.37355C15.1012 4.3266 15.1127 4.1516 15.0033 4.05938C14.8968 3.96688 14.7386 3.99855 14.6235 4.02355C14.4594 4.0591 11.8724 5.71131 6.85377 8.9799C6.11996 9.46712 5.45522 9.70462 4.85667 9.69212C4.20056 9.67851 2.93439 9.33323 1.99339 9.03823C0.842328 8.67629 -0.0756468 8.4849 0.00492774 7.87019C0.045215 7.55019 0.502764 7.22269 1.3747 6.88797Z" fill="#2B2E34"/>
</svg>
