<svg width="18" height="18" viewBox="0 0 18 18" fill="none" xmlns="http://www.w3.org/2000/svg">
<path d="M12 7.5C12 6.67157 11.3284 6 10.5 6H6V10.5C6 11.3284 6.67157 12 7.5 12H12V7.5ZM1 15.5C1 16.3284 1.67157 17 2.5 17H10.5C11.3284 17 12 16.3284 12 15.5V13H7.5C6.11929 13 5 11.8807 5 10.5V6H2.5C1.67157 6 1 6.67157 1 7.5V15.5ZM13 12H15.5C16.3284 12 17 11.3284 17 10.5V2.5C17 1.67157 16.3284 1 15.5 1H7.5C6.67157 1 6 1.67157 6 2.5V5H10.5C11.8807 5 13 6.11929 13 7.5V12ZM18 10.5C18 11.8807 16.8807 13 15.5 13H13V15.5C13 16.8807 11.8807 18 10.5 18H2.5C1.11929 18 0 16.8807 0 15.5V7.5C0 6.11929 1.11929 5 2.5 5H5V2.5C5 1.11929 6.11929 0 7.5 0H15.5C16.8807 0 18 1.11929 18 2.5V10.5Z" fill="#2ED6A1"/>
</svg>
