<svg width="38" height="33" viewBox="0 0 38 33" fill="none" xmlns="http://www.w3.org/2000/svg">
<path d="M27.4345 7.63303H29.1149C29.8288 7.63303 30.4075 7.05662 30.4075 6.34559V5.53972C30.4075 5.39145 30.3818 5.24429 30.3315 5.10474L29.9049 3.92116C29.6776 3.29051 29.0026 2.93894 28.3529 3.11279L25.6339 3.84033C25.3361 3.92003 25.0766 4.10317 24.9025 4.35668L24.5931 4.807M27.4345 7.63303L31.5193 15.0033C31.75 15.4195 31.7316 15.9285 31.4714 16.3271L31.3899 16.452M27.4345 7.63303L26.7235 6.5387M31.3899 16.452L36.3023 18.9884C36.7309 19.2098 37 19.6506 37 20.1314V21.1511C37 21.8621 36.4213 22.4385 35.7074 22.4385H35.3395M31.3899 16.452L27.4829 22.4385M27.4829 22.4385L25.5547 25.3932C25.3162 25.7586 24.9084 25.979 24.4709 25.979H2.29264C1.57873 25.979 1 25.4026 1 24.6916V24.1122C1 23.4012 1.57873 22.8248 2.29264 22.8248H2.87433M27.4829 22.4385H28.1901M2.87433 22.8248H9.78995M2.87433 22.8248L4.91118 16.5698C5.08402 16.039 5.5805 15.6795 6.14077 15.6795H8.04488M8.04488 15.6795V13.8771C8.04488 13.1661 8.62362 12.5897 9.33752 12.5897H17.2873C18.0012 12.5897 18.5799 13.1661 18.5799 13.8771V14.3921C18.5799 15.1031 18.0012 15.6795 17.2873 15.6795H15.93M8.04488 15.6795H15.93M15.93 15.6795L14.0598 21.1204C13.7726 21.9559 14.3961 22.8248 15.2828 22.8248H22.3576C22.7843 22.8248 23.1836 22.615 23.4245 22.2642L27.6376 16.1301M28.4686 17.5463L27.6376 16.1301M27.6376 16.1301L23.0647 8.33684C22.8125 7.90708 22.8317 7.37105 23.1139 6.96024L23.4159 6.52057M24.5931 4.807L24.9002 5.15246C25.2663 5.56438 25.2328 6.1927 24.8248 6.56364L24.7988 6.58737C24.399 6.95091 23.7785 6.92094 23.4159 6.52057M24.5931 4.807L22.484 2.43408C22.2225 2.13984 21.8403 1.98067 21.4464 2.00188L15.9133 2.29976C15.3591 2.3296 14.942 2.81425 14.9973 3.36433C15.049 3.87989 15.4986 4.2638 16.0181 4.23598L20.4845 3.99682C20.8741 3.97595 21.2524 4.13152 21.5138 4.42011L23.4159 6.52057M14.1849 25.979C14.1849 28.752 11.9279 31 9.14363 31C6.3594 31 4.10233 28.752 4.10233 25.979M11.7289 25.979C11.7289 27.4011 10.5714 28.5539 9.14363 28.5539C7.71582 28.5539 6.55835 27.4011 6.55835 25.979M28.1901 22.4385C27.2837 23.3464 26.7235 24.5975 26.7235 25.979C26.7235 28.752 28.9806 31 31.7648 31C34.549 31 36.8061 28.752 36.8061 25.979C36.8061 24.5975 36.2459 23.3464 35.3395 22.4385M28.1901 22.4385H35.3395M34.3501 25.979C34.3501 27.4011 33.1926 28.5539 31.7648 28.5539C30.337 28.5539 29.1795 27.4011 29.1795 25.979C29.1795 24.5569 30.337 23.4041 31.7648 23.4041C33.1926 23.4041 34.3501 24.5569 34.3501 25.979Z" stroke="white" stroke-width="1.5"/>
</svg>
