<svg width="131" height="120" viewBox="0 0 131 120" fill="none" xmlns="http://www.w3.org/2000/svg">
<path d="M7.97827 119.983C3.48401 119.983 0.844254 118.854 0.142547 116.662C0.00476366 116.208 -0.0337352 115.731 0.0296626 115.261C0.0930604 114.791 0.256888 114.34 0.51011 113.939C1.76316 111.863 5.05448 110.618 7.49375 110.136H7.64411C31.6692 110.136 56.0953 109.97 79.5857 109.821C93.5363 109.821 107.988 109.638 122.139 109.571C123.977 109.634 125.784 110.063 127.452 110.833H127.552C128.588 111.144 129.49 111.79 130.114 112.668C130.738 113.547 131.048 114.608 130.994 115.682C130.359 119.186 125.33 119.718 122.39 119.718L8.04507 120L7.97827 119.983ZM7.72762 111.68C7.64689 111.696 7.56541 111.713 7.48331 111.731C5.35697 112.194 2.81621 113.263 1.96364 114.686C1.82775 114.883 1.73902 115.108 1.70427 115.344C1.66951 115.58 1.68966 115.821 1.76316 116.048C2.36462 117.957 5.97336 118.24 8.04507 118.24L122.39 117.957C123.91 117.957 128.872 117.742 129.323 115.3C129.557 114.055 128.271 112.826 126.934 112.311H126.834C125.517 111.684 124.096 111.304 122.642 111.192C122.491 111.18 122.341 111.172 122.189 111.166C112.793 111.166 103.293 111.231 93.8999 111.3C89.114 111.334 84.3557 111.37 79.6526 111.398C56.0619 111.597 31.7193 111.747 7.72762 111.747V111.68Z" fill="#2ED6A1"/>
<path d="M7.64413 111.747C7.59001 111.747 7.53616 111.742 7.48331 111.731C7.42766 111.72 7.37312 111.704 7.32057 111.682C7.21812 111.639 7.12523 111.577 7.04744 111.498C6.96965 111.419 6.90849 111.325 6.86751 111.223C6.84888 111.176 6.83459 111.128 6.82476 111.079C6.81295 111.02 6.80756 110.96 6.80877 110.9C7.04267 88.0667 23.8669 67.1929 46.9063 61.2978C49.6284 60.5988 52.3821 60.0638 55.1429 59.6894C55.7041 59.6132 56.2656 59.5437 56.8272 59.4809C60.7048 59.0466 64.5865 58.9273 68.4044 59.1134C68.9716 59.1411 69.5375 59.1755 70.1017 59.2166C80.9332 60.0058 91.1635 63.2688 99.2169 68.7871C111.898 77.4554 121.037 92.5502 124.278 110.202L123.459 110.369V110.482V111.199C123.387 111.195 123.109 111.193 122.642 111.192C119.562 111.185 108.275 111.231 93.8999 111.3C59.8783 111.461 8.55873 111.747 7.79449 111.747H7.64413ZM64.5826 60.7664C58.7338 60.7627 52.9077 61.488 47.2405 62.9252C36.5815 65.6711 27.0803 71.722 20.1163 80.1996C13.1523 88.6771 9.08777 99.1401 8.5129 110.07L105.265 109.571H118.38C120.335 109.571 121.571 109.571 122.356 109.571C119.015 92.9654 110.06 78.3521 98.181 70.2152C89.2259 64.0378 77.063 60.7664 64.5826 60.7664Z" fill="#2ED6A1"/>
<path d="M63.3797 37.1527C63.232 37.1555 63.0867 37.1151 62.962 37.0364C61.4855 36.2502 60.2083 35.1404 59.227 33.7911C58.2458 32.4418 57.5862 30.8883 57.2982 29.2482C57.0252 27.7786 57.0939 26.2663 57.4994 24.8272C57.9048 23.3881 58.6361 22.0602 59.6372 20.9452C60.5195 20.0297 61.4689 19.1805 62.4775 18.4045C64.0843 17.3468 65.3949 15.9013 66.2868 14.2032C66.5967 13.3188 66.6884 12.3734 66.5541 11.4466C66.1553 9.1919 65.147 7.0875 63.6372 5.35871C62.1275 3.62992 60.173 2.34185 57.9832 1.63242C57.7738 1.55398 57.6039 1.39679 57.5101 1.19482C57.4163 0.992851 57.4062 0.762317 57.482 0.553027C57.5192 0.448603 57.5771 0.352631 57.6522 0.270779C57.7273 0.188926 57.8181 0.122842 57.9193 0.0764176C58.0205 0.0299929 58.1301 0.00417065 58.2415 0.000464743C58.3529 -0.00324117 58.4639 0.0152467 58.568 0.0548417C61.0531 0.872896 63.2669 2.34875 64.9714 4.32372C66.6758 6.2987 67.8063 8.69808 68.2415 11.2639C68.4025 12.4552 68.2765 13.6675 67.8739 14.801C66.8923 16.8076 65.4007 18.5248 63.5467 19.7828C62.6063 20.4992 61.7237 21.2876 60.907 22.1408C60.0881 23.0568 59.4883 24.1451 59.1527 25.3242C58.817 26.5033 58.7542 27.7426 58.969 28.9493C59.214 30.3458 59.7742 31.669 60.6076 32.8195C61.441 33.97 62.5259 34.9178 63.7807 35.5917C63.879 35.6421 63.9661 35.7119 64.0366 35.7967C64.1071 35.8815 64.1595 35.9797 64.1908 36.0852C64.222 36.1908 64.2313 36.3016 64.2183 36.4108C64.2052 36.5201 64.17 36.6255 64.1148 36.7209C64.0426 36.8519 63.9363 36.9612 63.8069 37.0372C63.6775 37.1132 63.53 37.1531 63.3797 37.1527Z" fill="#2ED6A1"/>
<path d="M47.0399 37.7173C46.8817 37.7201 46.7257 37.6799 46.5888 37.601C45.5528 36.9505 44.6574 36.1015 43.9547 35.1037C43.252 34.1059 42.756 32.9791 42.4956 31.7889C42.2686 30.7371 42.2581 29.6505 42.4648 28.5945C42.6716 27.5386 43.0912 26.5352 43.6984 25.6447C44.544 24.5168 45.5197 23.4913 46.6056 22.5892L52.403 17.3251C52.573 17.206 52.7809 17.1528 52.9876 17.1755C53.1943 17.1982 53.3855 17.2952 53.5252 17.4484C53.6649 17.6015 53.7434 17.8002 53.746 18.0069C53.7485 18.2135 53.6749 18.414 53.5391 18.5705L47.7416 23.818C46.7645 24.646 45.8796 25.5757 45.1019 26.5912C44.6203 27.2959 44.2888 28.0911 44.1279 28.9279C43.967 29.7646 43.9801 30.6252 44.1663 31.4568C44.3776 32.4251 44.7821 33.3414 45.3561 34.1515C45.93 34.9615 46.6617 35.6489 47.5078 36.1729C47.6034 36.2306 47.6864 36.3068 47.7519 36.3969C47.8174 36.4871 47.8641 36.5894 47.889 36.6979C47.9139 36.8063 47.9167 36.9186 47.8971 37.0281C47.8775 37.1376 47.836 37.2421 47.775 37.3353C47.6954 37.456 47.586 37.5544 47.4574 37.6212C47.3287 37.688 47.185 37.7211 47.0399 37.7173Z" fill="#2ED6A1"/>
<path d="M78.9007 37.6176C78.7358 37.6168 78.5748 37.5675 78.4381 37.4759C78.3013 37.3843 78.1949 37.2545 78.1322 37.1028C77.0425 34.759 75.304 32.7719 73.12 31.3738L72.435 30.9254C71.3383 30.3658 70.3798 29.5719 69.6282 28.6006C68.9065 27.3492 68.6354 25.8907 68.8597 24.4657C68.8809 24.2438 68.9892 24.0391 69.1613 23.8961C69.3333 23.7531 69.5551 23.6833 69.7786 23.7018C69.8892 23.7079 69.9974 23.7364 70.0967 23.7853C70.1959 23.8343 70.2842 23.9027 70.356 23.9866C70.4279 24.0704 70.4819 24.1679 70.5147 24.2731C70.5475 24.3783 70.5586 24.489 70.5471 24.5985C70.3558 25.6476 70.5266 26.7301 71.0316 27.6706C71.6645 28.425 72.4427 29.046 73.3205 29.4973C73.5711 29.6467 73.8217 29.7962 74.0556 29.9623C76.5367 31.5281 78.5049 33.7786 79.7194 36.4386C79.766 36.5385 79.7917 36.6468 79.795 36.7569C79.7982 36.867 79.779 36.9766 79.7383 37.0791C79.6977 37.1815 79.6366 37.2747 79.5587 37.353C79.4808 37.4313 79.3877 37.4931 79.285 37.5346C79.1663 37.5949 79.0339 37.6235 78.9007 37.6176Z" fill="#2ED6A1"/>
<path d="M11.8878 105.985C11.8153 105.985 11.7454 105.957 11.6926 105.908C11.6398 105.858 11.608 105.791 11.6038 105.719C11.599 105.681 11.6024 105.643 11.6136 105.607C11.6249 105.571 11.6439 105.537 11.6692 105.509C11.6945 105.481 11.7256 105.458 11.7604 105.443C11.7953 105.427 11.833 105.42 11.8711 105.42C33.9581 104.407 56.3793 104.241 78.4998 104.922C78.5614 104.937 78.616 104.972 78.6551 105.022C78.6942 105.071 78.7154 105.133 78.7154 105.196C78.7154 105.259 78.6942 105.32 78.6551 105.37C78.616 105.419 78.5614 105.455 78.4998 105.47C56.396 104.789 33.9915 104.972 11.9045 105.985H11.8878Z" fill="#2ED6A1"/>
<path d="M106.134 105.769C99.7014 105.769 93.269 105.669 86.9036 105.503C86.8295 105.499 86.7596 105.468 86.7072 105.416C86.6547 105.364 86.6235 105.294 86.6195 105.221C86.6305 105.147 86.6661 105.079 86.7207 105.028C86.7752 104.976 86.8456 104.945 86.9203 104.938C97.4292 105.221 108.105 105.27 118.664 105.088C118.738 105.092 118.808 105.123 118.861 105.175C118.913 105.227 118.944 105.297 118.948 105.37C118.948 105.445 118.918 105.517 118.865 105.57C118.812 105.623 118.739 105.652 118.664 105.652C114.487 105.719 110.311 105.769 106.134 105.769Z" fill="#2ED6A1"/>
<path d="M13.5919 100.853C13.5501 100.864 13.5064 100.864 13.4642 100.855C13.4221 100.846 13.3825 100.828 13.3486 100.802C13.3146 100.775 13.2871 100.741 13.2683 100.703C13.2494 100.664 13.2395 100.622 13.2395 100.579C13.2395 100.536 13.2494 100.494 13.2683 100.456C13.2871 100.417 13.3146 100.383 13.3486 100.357C13.3825 100.331 13.4221 100.312 13.4642 100.303C13.5064 100.294 13.5501 100.295 13.5919 100.305L21.5613 99.8403C21.6366 99.8403 21.7089 99.8701 21.7621 99.923C21.8154 99.9759 21.8453 100.048 21.8453 100.123C21.8453 100.197 21.8154 100.269 21.7621 100.322C21.7089 100.375 21.6366 100.405 21.5613 100.405L13.5919 100.853Z" fill="#2ED6A1"/>
<path d="M61.8534 51.8245C60.4961 51.916 59.1726 52.2862 57.9665 52.9117C55.7248 54.4699 55.2306 57.1137 55.1429 59.6894C55.7041 59.6132 56.2656 59.5437 56.8272 59.4809C56.9105 57.3707 57.3498 55.4128 58.9356 54.3067C59.9962 53.7232 61.2001 53.4471 62.4107 53.5096C63.349 53.4513 64.2899 53.5696 65.1841 53.8583C66.0776 54.2275 66.8505 54.8359 67.4168 55.6157C67.9832 56.3956 68.3207 57.3163 68.3919 58.2755C68.4277 58.5547 68.4316 58.8358 68.4044 59.1134C68.9716 59.1411 69.5375 59.1755 70.1017 59.2166C70.1246 58.8877 70.1174 58.556 70.0793 58.2257C69.9834 56.9593 69.5381 55.7438 68.7924 54.7125C68.0467 53.6813 67.0294 52.8744 65.8523 52.3804C64.5723 51.9223 63.2107 51.7331 61.8534 51.8245Z" fill="#2ED6A1"/>
<path fill-rule="evenodd" clip-rule="evenodd" d="M64.5826 60.7664C58.7338 60.7627 52.9077 61.488 47.2405 62.9252C36.5815 65.6711 27.0803 71.722 20.1163 80.1996C13.1523 88.6771 9.08777 99.1401 8.5129 110.07L105.265 109.571H118.38L122.139 109.571L122.356 109.571C119.015 92.9654 110.06 78.3521 98.181 70.2152C89.2259 64.0378 77.063 60.7664 64.5826 60.7664ZM11.6926 105.908C11.7454 105.957 11.8153 105.985 11.8878 105.985H11.9045C33.9915 104.972 56.396 104.789 78.4998 105.47C78.5614 105.455 78.616 105.419 78.6551 105.37C78.6942 105.32 78.7154 105.259 78.7154 105.196C78.7154 105.133 78.6942 105.071 78.6551 105.022C78.616 104.972 78.5614 104.937 78.4998 104.922C56.3793 104.241 33.9581 104.407 11.8711 105.42C11.833 105.42 11.7953 105.427 11.7604 105.443C11.7256 105.458 11.6945 105.481 11.6692 105.509C11.6439 105.537 11.6249 105.571 11.6136 105.607C11.6024 105.643 11.599 105.681 11.6038 105.719C11.608 105.791 11.6398 105.858 11.6926 105.908ZM86.9036 105.503C93.269 105.669 99.7014 105.769 106.134 105.769C110.311 105.769 114.487 105.719 118.664 105.652C118.739 105.652 118.812 105.623 118.865 105.57C118.918 105.517 118.948 105.445 118.948 105.37C118.944 105.297 118.913 105.227 118.861 105.175C118.808 105.123 118.738 105.092 118.664 105.088C108.105 105.27 97.4292 105.221 86.9203 104.938C86.8456 104.945 86.7752 104.976 86.7207 105.028C86.6661 105.079 86.6305 105.147 86.6195 105.221C86.6235 105.294 86.6547 105.364 86.7072 105.416C86.7596 105.468 86.8295 105.499 86.9036 105.503ZM13.4642 100.855C13.5064 100.864 13.5501 100.864 13.5919 100.853L21.5613 100.405C21.6366 100.405 21.7089 100.375 21.7621 100.322C21.8154 100.269 21.8453 100.197 21.8453 100.123C21.8453 100.048 21.8154 99.9759 21.7621 99.923C21.7089 99.8701 21.6366 99.8403 21.5613 99.8403L13.5919 100.305C13.5501 100.295 13.5064 100.294 13.4642 100.303C13.4221 100.312 13.3825 100.331 13.3486 100.357C13.3146 100.383 13.2871 100.417 13.2683 100.456C13.2494 100.494 13.2395 100.536 13.2395 100.579C13.2395 100.622 13.2494 100.664 13.2683 100.703C13.2871 100.741 13.3146 100.775 13.3486 100.802C13.3825 100.828 13.4221 100.846 13.4642 100.855Z" fill="url(#paint0_linear_54_3353)"/>
<path d="M7.64412 110.9C7.37567 110.951 7.10152 111.01 6.82476 111.079C6.83459 111.128 6.84888 111.176 6.86751 111.223C6.90849 111.325 6.96965 111.419 7.04744 111.498C7.12523 111.577 7.21812 111.639 7.32057 111.682C7.37312 111.704 7.42766 111.72 7.48331 111.731C7.56541 111.713 7.64689 111.696 7.72762 111.68V111.747C31.7193 111.747 56.0619 111.597 79.6526 111.398C84.3557 111.37 89.114 111.334 93.8999 111.3C59.8783 111.461 8.55873 111.747 7.79449 111.747L7.72762 111.747L7.64413 111.747C7.59001 111.747 7.53616 111.742 7.48331 111.731C5.35697 112.194 2.81621 113.263 1.96364 114.686C1.82775 114.883 1.73902 115.108 1.70427 115.344C1.66951 115.58 1.68966 115.821 1.76316 116.048C2.36462 117.957 5.97336 118.24 8.04507 118.24L122.39 117.957C123.91 117.957 128.872 117.742 129.323 115.3C129.557 114.055 128.271 112.826 126.934 112.311H126.834C125.517 111.684 124.096 111.304 122.642 111.192C119.562 111.185 108.275 111.231 93.8999 111.3C89.114 111.334 84.3557 111.37 79.6526 111.398C56.0619 111.597 31.7193 111.747 7.72762 111.747L7.79449 111.747C8.55873 111.747 59.8783 111.461 93.8999 111.3C103.293 111.231 112.793 111.166 122.189 111.166C122.341 111.172 122.491 111.18 122.642 111.192C123.109 111.193 123.387 111.195 123.459 111.199V110.482C123.022 110.422 122.582 110.384 122.139 110.369C83.9297 110.518 45.8704 110.9 7.64412 110.9Z" fill="url(#paint1_linear_54_3353)"/>
<path d="M62.4107 53.5096C61.2001 53.4471 59.9962 53.7232 58.9356 54.3067C57.3498 55.4128 56.9105 57.3707 56.8272 59.4809C60.7048 59.0466 64.5865 58.9273 68.4044 59.1134C68.4316 58.8358 68.4277 58.5547 68.3919 58.2755C68.3207 57.3163 67.9832 56.3956 67.4168 55.6157C66.8505 54.8359 66.0776 54.2275 65.1841 53.8583C64.2899 53.5696 63.349 53.4513 62.4107 53.5096Z" fill="url(#paint2_linear_54_3353)"/>
<defs>
<linearGradient id="paint0_linear_54_3353" x1="65.5" y1="0" x2="65.5" y2="120" gradientUnits="userSpaceOnUse">
<stop stop-color="#DAF4EC" stop-opacity="0"/>
<stop offset="1" stop-color="#C8EDE1"/>
</linearGradient>
<linearGradient id="paint1_linear_54_3353" x1="65.5" y1="0" x2="65.5" y2="120" gradientUnits="userSpaceOnUse">
<stop stop-color="#DAF4EC" stop-opacity="0"/>
<stop offset="1" stop-color="#C8EDE1"/>
</linearGradient>
<linearGradient id="paint2_linear_54_3353" x1="65.5" y1="0" x2="65.5" y2="120" gradientUnits="userSpaceOnUse">
<stop stop-color="#DAF4EC" stop-opacity="0"/>
<stop offset="1" stop-color="#C8EDE1"/>
</linearGradient>
</defs>
</svg>
