<svg aria-hidden="true" xmlns="http://www.w3.org/2000/svg" xmlns:xlink="http://www.w3.org/1999/xlink"><symbol viewBox="0 0 17 14" fill="none" id="icon-arrow-next" xmlns="http://www.w3.org/2000/svg">
<path d="M1 7.00002L15 7M15 7L9.50427 1M15 7L9.50427 13" stroke="currentColor" stroke-width="2" stroke-linecap="round"/>
</symbol><symbol viewBox="0 0 17 14" fill="none" id="icon-arrow-prev" xmlns="http://www.w3.org/2000/svg">
<path d="M15.3561 7.00002L1.35609 7M1.35609 7L6.85181 1M1.35609 7L6.85181 13" stroke="currentColor" stroke-width="2" stroke-linecap="round"/>
</symbol><symbol viewBox="0 0 14 14" fill="none" id="icon-arrow-rotate" xmlns="http://www.w3.org/2000/svg">
<path d="M1 13L13 1M13 1H1M13 1V13" stroke="currentColor" stroke-width="2" stroke-linecap="round"/>
</symbol><symbol viewBox="0 0 26 26" fill="none" id="icon-circle-minus" xmlns="http://www.w3.org/2000/svg">
<path d="M7 13H13H19M25 13C25 19.6274 19.6274 25 13 25C6.37258 25 1 19.6274 1 13C1 6.37258 6.37258 1 13 1C19.6274 1 25 6.37258 25 13Z" stroke="currentColor" stroke-width="2" stroke-linecap="round" stroke-linejoin="round"/>
</symbol><symbol viewBox="0 0 26 26" fill="none" id="icon-circle-plus" xmlns="http://www.w3.org/2000/svg">
<path d="M7 13H13M13 13H19M13 13V7M13 13V19M25 13C25 19.6274 19.6274 25 13 25C6.37258 25 1 19.6274 1 13C1 6.37258 6.37258 1 13 1C19.6274 1 25 6.37258 25 13Z" stroke="currentColor" stroke-width="2" stroke-linecap="round" stroke-linejoin="round"/>
</symbol><symbol viewBox="0 0 165 165" fill="none" id="icon-close" xmlns="http://www.w3.org/2000/svg">
<g clip-path="url(#fclip0_2110_1400)">
<path d="M154 9L10 153" stroke="currentColor" stroke-width="16" stroke-linecap="round" stroke-linejoin="round"/>
<path d="M154 153L10 9" stroke="currentColor" stroke-width="16" stroke-linecap="round" stroke-linejoin="round"/>
</g>
<defs>
<clipPath id="fclip0_2110_1400">
<rect width="165" height="165" fill="currentColor"/>
</clipPath>
</defs>
</symbol><symbol viewBox="0 0 18 18" fill="none" id="icon-copy" xmlns="http://www.w3.org/2000/svg">
<path d="M12 7.5C12 6.67157 11.3284 6 10.5 6H6V10.5C6 11.3284 6.67157 12 7.5 12H12V7.5ZM1 15.5C1 16.3284 1.67157 17 2.5 17H10.5C11.3284 17 12 16.3284 12 15.5V13H7.5C6.11929 13 5 11.8807 5 10.5V6H2.5C1.67157 6 1 6.67157 1 7.5V15.5ZM13 12H15.5C16.3284 12 17 11.3284 17 10.5V2.5C17 1.67157 16.3284 1 15.5 1H7.5C6.67157 1 6 1.67157 6 2.5V5H10.5C11.8807 5 13 6.11929 13 7.5V12ZM18 10.5C18 11.8807 16.8807 13 15.5 13H13V15.5C13 16.8807 11.8807 18 10.5 18H2.5C1.11929 18 0 16.8807 0 15.5V7.5C0 6.11929 1.11929 5 2.5 5H5V2.5C5 1.11929 6.11929 0 7.5 0H15.5C16.8807 0 18 1.11929 18 2.5V10.5Z" fill="currentColor"/>
</symbol><symbol viewBox="0 0 12 7" fill="none" id="icon-down" xmlns="http://www.w3.org/2000/svg">
<path d="M11.5 0.500001L6 5.5L0.5 0.5" stroke="currentColor" stroke-linecap="round"/>
</symbol><symbol viewBox="0 0 16 21" fill="none" id="icon-lock" xmlns="http://www.w3.org/2000/svg">
<path d="M2 21C1.45 21 0.979333 20.8043 0.588 20.413C0.196666 20.0217 0.000666667 19.5507 0 19V9C0 8.45 0.196 7.97933 0.588 7.588C0.98 7.19667 1.45067 7.00067 2 7H3V5C3 3.61667 3.48767 2.43767 4.463 1.463C5.43833 0.488334 6.61733 0.000667349 8 6.82594e-07C9.38267 -0.000665984 10.562 0.487001 11.538 1.463C12.514 2.439 13.0013 3.618 13 5V7H14C14.55 7 15.021 7.196 15.413 7.588C15.805 7.98 16.0007 8.45067 16 9V19C16 19.55 15.8043 20.021 15.413 20.413C15.0217 20.805 14.5507 21.0007 14 21H2ZM9.413 15.413C9.80433 15.021 10 14.55 10 14C10 13.45 9.80433 12.9793 9.413 12.588C9.02167 12.1967 8.55067 12.0007 8 12C7.44933 11.9993 6.97867 12.1953 6.588 12.588C6.19733 12.9807 6.00133 13.4513 6 14C5.99867 14.5487 6.19467 15.0197 6.588 15.413C6.98133 15.8063 7.452 16.002 8 16C8.548 15.998 9.019 15.8023 9.413 15.413ZM5 7H11V5C11 4.16667 10.7083 3.45833 10.125 2.875C9.54167 2.29167 8.83333 2 8 2C7.16667 2 6.45833 2.29167 5.875 2.875C5.29167 3.45833 5 4.16667 5 5V7Z" fill="currentColor"/>
</symbol><symbol viewBox="0 0 26 26" fill="none" id="icon-mark-circle" xmlns="http://www.w3.org/2000/svg">
<path d="M25 13C25 19.6274 19.6274 25 13 25C6.37258 25 1 19.6274 1 13C1 6.37258 6.37258 1 13 1C14.8827 1 16.6642 1.43358 18.25 2.20635M22.75 5.5L12.25 16L9.25 13" stroke="currentColor" stroke-width="2" stroke-linecap="round" stroke-linejoin="round"/>
</symbol><symbol viewBox="0 0 18 18" fill="none" id="icon-max" xmlns="http://www.w3.org/2000/svg">
<path fill-rule="evenodd" clip-rule="evenodd" d="M9.19338 17.9486C7.42691 17.9486 6.606 17.6896 5.17907 16.6536C4.27649 17.8191 1.41833 18.7299 1.29369 17.1716C1.29369 16.0018 1.03581 15.0133 0.74355 13.9342C0.395414 12.6046 0 11.124 0 8.97863C0 3.85477 4.18623 0 9.14611 0C14.1103 0 17.9999 4.0447 17.9999 9.02612C18.0166 13.9305 14.0765 17.9225 9.19338 17.9486ZM9.26645 4.42888C6.85098 4.3037 4.96847 5.98288 4.55156 8.61604C4.20772 10.7959 4.81804 13.4507 5.33809 13.5888C5.58738 13.6493 6.21488 13.1399 6.606 12.7471C7.25273 13.1958 8.00584 13.4653 8.78937 13.5284C11.2922 13.6493 13.4308 11.7356 13.5988 9.22468C13.6966 6.70844 11.7696 4.5772 9.26645 4.4332L9.26645 4.42888Z" fill="currentColor"/>
</symbol><symbol viewBox="0 0 17 14" fill="none" id="icon-next" xmlns="http://www.w3.org/2000/svg">
<path d="M1 7.00002L15 7M15 7L9.50427 1M15 7L9.50427 13" stroke="currentColor" stroke-width="2" stroke-linecap="round"/>
</symbol><symbol viewBox="0 0 35 35" fill="none" id="icon-play" xmlns="http://www.w3.org/2000/svg">
<path d="M29 14.0359C31.6667 15.5755 31.6667 19.4245 29 20.9641L14.75 29.1913C12.0833 30.7309 8.75 28.8064 8.75 25.7272L8.75 9.27275C8.75 6.19355 12.0833 4.26906 14.75 5.80866L29 14.0359Z" fill="currentColor"/>
</symbol><symbol viewBox="0 0 17 14" fill="none" id="icon-prev" xmlns="http://www.w3.org/2000/svg">
<path d="M15.3561 7.00002L1.35609 7M1.35609 7L6.85181 1M1.35609 7L6.85181 13" stroke="currentColor" stroke-width="2" stroke-linecap="round"/>
</symbol><symbol viewBox="0 0 18 18" fill="none" id="icon-search" xmlns="http://www.w3.org/2000/svg">
<path d="M13 13L17 17M15 8C15 11.866 11.866 15 8 15C4.13401 15 1 11.866 1 8C1 4.13401 4.13401 1 8 1C11.866 1 15 4.13401 15 8Z" stroke="currentColor" stroke-width="2" stroke-linecap="round" stroke-linejoin="round"/>
</symbol><symbol viewBox="0 0 20 16" fill="none" id="icon-tg" xmlns="http://www.w3.org/2000/svg">
<path d="M1.3747 6.88797C6.74442 4.63021 10.3242 3.14161 12.1141 2.42245C17.2306 0.368853 18.2925 0.0121885 18.986 0.000105283C19.1385 -0.00225581 19.4781 0.0341325 19.6997 0.207048C19.8838 0.35288 19.9356 0.550101 19.9615 0.688573C19.9845 0.826905 20.0162 1.14218 19.9903 1.38829C19.714 4.19938 18.5141 11.021 17.904 14.1696C17.6479 15.5018 17.1385 15.9485 16.6465 15.9921C15.576 16.0871 14.7645 15.3099 13.7285 14.6546C12.1084 13.6288 11.1933 12.9904 9.6192 11.9896C7.80052 10.8329 8.98036 10.1971 10.0163 9.15823C10.2868 8.88629 15.0004 4.74882 15.0896 4.37355C15.1012 4.3266 15.1127 4.1516 15.0033 4.05938C14.8968 3.96688 14.7386 3.99855 14.6235 4.02355C14.4594 4.0591 11.8724 5.71131 6.85377 8.9799C6.11996 9.46712 5.45522 9.70462 4.85667 9.69212C4.20056 9.67851 2.93439 9.33323 1.99339 9.03823C0.842328 8.67629 -0.0756468 8.4849 0.00492774 7.87019C0.045215 7.55019 0.502764 7.22269 1.3747 6.88797Z" fill="currentColor"/>
</symbol></svg>